<mxfile host="app.diagrams.net" agent="Mozilla/5.0 (Windows NT 10.0; Win64; x64) AppleWebKit/537.36 (KHTML, like Gecko) Chrome/141.0.0.0 Safari/537.36" version="28.2.5">
  <diagram name="Page-1" id="c4acf3e9-155e-7222-9cf6-157b1a14988f">
    <mxGraphModel dx="1426" dy="751" grid="1" gridSize="10" guides="1" tooltips="1" connect="1" arrows="1" fold="1" page="1" pageScale="1" pageWidth="850" pageHeight="1100" background="none" math="0" shadow="0">
      <root>
        <mxCell id="0" />
        <mxCell id="1" parent="0" />
        <mxCell id="WOg8uB2SWNcIaJGhVEnW-1" value="abstract class Transport" style="swimlane;fontStyle=1;align=center;verticalAlign=top;childLayout=stackLayout;horizontal=1;startSize=40;horizontalStack=0;resizeParent=1;resizeParentMax=0;resizeLast=0;collapsible=1;marginBottom=0;whiteSpace=wrap;html=1;" parent="1" vertex="1">
          <mxGeometry x="330" y="80" width="130" height="156" as="geometry" />
        </mxCell>
        <mxCell id="WOg8uB2SWNcIaJGhVEnW-11" value="# String name" style="text;strokeColor=none;fillColor=none;align=left;verticalAlign=top;spacingLeft=4;spacingRight=4;overflow=hidden;rotatable=0;points=[[0,0.5],[1,0.5]];portConstraint=eastwest;whiteSpace=wrap;html=1;" parent="WOg8uB2SWNcIaJGhVEnW-1" vertex="1">
          <mxGeometry y="40" width="130" height="26" as="geometry" />
        </mxCell>
        <mxCell id="WOg8uB2SWNcIaJGhVEnW-12" value="# int power&lt;div&gt;&lt;br&gt;&lt;/div&gt;" style="text;strokeColor=none;fillColor=none;align=left;verticalAlign=top;spacingLeft=4;spacingRight=4;overflow=hidden;rotatable=0;points=[[0,0.5],[1,0.5]];portConstraint=eastwest;whiteSpace=wrap;html=1;" parent="WOg8uB2SWNcIaJGhVEnW-1" vertex="1">
          <mxGeometry y="66" width="130" height="26" as="geometry" />
        </mxCell>
        <mxCell id="WOg8uB2SWNcIaJGhVEnW-2" value="&lt;div&gt;# FuelType fuelType&lt;/div&gt;" style="text;strokeColor=none;fillColor=none;align=left;verticalAlign=top;spacingLeft=4;spacingRight=4;overflow=hidden;rotatable=0;points=[[0,0.5],[1,0.5]];portConstraint=eastwest;whiteSpace=wrap;html=1;" parent="WOg8uB2SWNcIaJGhVEnW-1" vertex="1">
          <mxGeometry y="92" width="130" height="26" as="geometry" />
        </mxCell>
        <mxCell id="WOg8uB2SWNcIaJGhVEnW-3" value="" style="line;strokeWidth=1;fillColor=none;align=left;verticalAlign=middle;spacingTop=-1;spacingLeft=3;spacingRight=3;rotatable=0;labelPosition=right;points=[];portConstraint=eastwest;strokeColor=inherit;" parent="WOg8uB2SWNcIaJGhVEnW-1" vertex="1">
          <mxGeometry y="118" width="130" height="8" as="geometry" />
        </mxCell>
        <mxCell id="WOg8uB2SWNcIaJGhVEnW-4" value="+ getInfo(): String" style="text;strokeColor=none;fillColor=none;align=left;verticalAlign=top;spacingLeft=4;spacingRight=4;overflow=hidden;rotatable=0;points=[[0,0.5],[1,0.5]];portConstraint=eastwest;whiteSpace=wrap;html=1;" parent="WOg8uB2SWNcIaJGhVEnW-1" vertex="1">
          <mxGeometry y="126" width="130" height="30" as="geometry" />
        </mxCell>
        <mxCell id="WOg8uB2SWNcIaJGhVEnW-13" value="enum FuelType" style="swimlane;fontStyle=1;align=center;verticalAlign=top;childLayout=stackLayout;horizontal=1;startSize=40;horizontalStack=0;resizeParent=1;resizeParentMax=0;resizeLast=0;collapsible=1;marginBottom=0;whiteSpace=wrap;html=1;" parent="1" vertex="1">
          <mxGeometry x="130" y="80" width="80" height="152" as="geometry" />
        </mxCell>
        <mxCell id="WOg8uB2SWNcIaJGhVEnW-14" value="PETROL" style="text;strokeColor=none;fillColor=none;align=left;verticalAlign=top;spacingLeft=4;spacingRight=4;overflow=hidden;rotatable=0;points=[[0,0.5],[1,0.5]];portConstraint=eastwest;whiteSpace=wrap;html=1;" parent="WOg8uB2SWNcIaJGhVEnW-13" vertex="1">
          <mxGeometry y="40" width="80" height="26" as="geometry" />
        </mxCell>
        <mxCell id="WOg8uB2SWNcIaJGhVEnW-18" value="DIESEL" style="text;strokeColor=none;fillColor=none;align=left;verticalAlign=top;spacingLeft=4;spacingRight=4;overflow=hidden;rotatable=0;points=[[0,0.5],[1,0.5]];portConstraint=eastwest;whiteSpace=wrap;html=1;" parent="WOg8uB2SWNcIaJGhVEnW-13" vertex="1">
          <mxGeometry y="66" width="80" height="26" as="geometry" />
        </mxCell>
        <mxCell id="WOg8uB2SWNcIaJGhVEnW-19" value="ELECTRIC" style="text;strokeColor=none;fillColor=none;align=left;verticalAlign=top;spacingLeft=4;spacingRight=4;overflow=hidden;rotatable=0;points=[[0,0.5],[1,0.5]];portConstraint=eastwest;whiteSpace=wrap;html=1;" parent="WOg8uB2SWNcIaJGhVEnW-13" vertex="1">
          <mxGeometry y="92" width="80" height="26" as="geometry" />
        </mxCell>
        <mxCell id="WOg8uB2SWNcIaJGhVEnW-17" value="HYBRID" style="text;strokeColor=none;fillColor=none;align=left;verticalAlign=top;spacingLeft=4;spacingRight=4;overflow=hidden;rotatable=0;points=[[0,0.5],[1,0.5]];portConstraint=eastwest;whiteSpace=wrap;html=1;" parent="WOg8uB2SWNcIaJGhVEnW-13" vertex="1">
          <mxGeometry y="118" width="80" height="26" as="geometry" />
        </mxCell>
        <mxCell id="WOg8uB2SWNcIaJGhVEnW-15" value="" style="line;strokeWidth=1;fillColor=none;align=left;verticalAlign=middle;spacingTop=-1;spacingLeft=3;spacingRight=3;rotatable=0;labelPosition=right;points=[];portConstraint=eastwest;strokeColor=inherit;" parent="WOg8uB2SWNcIaJGhVEnW-13" vertex="1">
          <mxGeometry y="144" width="80" height="8" as="geometry" />
        </mxCell>
        <mxCell id="WOg8uB2SWNcIaJGhVEnW-20" value="" style="endArrow=diamondThin;endFill=1;endSize=24;html=1;rounded=0;" parent="1" edge="1">
          <mxGeometry width="160" relative="1" as="geometry">
            <mxPoint x="210" y="160" as="sourcePoint" />
            <mxPoint x="330" y="160" as="targetPoint" />
          </mxGeometry>
        </mxCell>
      </root>
    </mxGraphModel>
  </diagram>
</mxfile>
